<svg width="484" height="343" viewBox="0 0 484 343" fill="none" xmlns="http://www.w3.org/2000/svg">
<path d="M483.061 311.061C483.646 310.475 483.646 309.525 483.061 308.939L473.515 299.393C472.929 298.808 471.979 298.808 471.393 299.393C470.808 299.979 470.808 300.929 471.393 301.515L479.879 310L471.393 318.485C470.808 319.071 470.808 320.021 471.393 320.607C471.979 321.192 472.929 321.192 473.515 320.607L483.061 311.061ZM29 311.5L482 311.5V308.5L29 308.5V311.5Z" fill="#FFBE00"/>
<path d="M30.0606 0.939331C29.4749 0.353546 28.5251 0.353546 27.9393 0.939331L18.3934 10.4853C17.8076 11.0711 17.8076 12.0208 18.3934 12.6066C18.9792 13.1924 19.9289 13.1924 20.5147 12.6066L29 4.12131L37.4853 12.6066C38.0711 13.1924 39.0208 13.1924 39.6066 12.6066C40.1924 12.0208 40.1924 11.0711 39.6066 10.4853L30.0606 0.939331ZM30.5 310L30.5 2L27.5 2L27.5 310L30.5 310Z" fill="#FFBE00"/>
<path d="M112.602 330.098C112.602 330.91 112.322 331.587 111.762 332.128C111.211 332.66 110.367 332.926 109.228 332.926H107.352V337H106.078V327.242H109.228C110.329 327.242 111.165 327.508 111.734 328.04C112.313 328.572 112.602 329.258 112.602 330.098ZM109.228 331.876C109.937 331.876 110.46 331.722 110.796 331.414C111.132 331.106 111.3 330.667 111.3 330.098C111.3 328.894 110.609 328.292 109.228 328.292H107.352V331.876H109.228ZM121.465 332.87C121.465 333.113 121.451 333.369 121.423 333.64H115.291C115.338 334.396 115.595 334.989 116.061 335.418C116.537 335.838 117.111 336.048 117.783 336.048C118.334 336.048 118.791 335.922 119.155 335.67C119.529 335.409 119.79 335.063 119.939 334.634H121.311C121.106 335.371 120.695 335.973 120.079 336.44C119.463 336.897 118.698 337.126 117.783 337.126C117.055 337.126 116.402 336.963 115.823 336.636C115.254 336.309 114.806 335.847 114.479 335.25C114.153 334.643 113.989 333.943 113.989 333.15C113.989 332.357 114.148 331.661 114.465 331.064C114.783 330.467 115.226 330.009 115.795 329.692C116.374 329.365 117.037 329.202 117.783 329.202C118.511 329.202 119.155 329.361 119.715 329.678C120.275 329.995 120.705 330.434 121.003 330.994C121.311 331.545 121.465 332.17 121.465 332.87ZM120.149 332.604C120.149 332.119 120.042 331.703 119.827 331.358C119.613 331.003 119.319 330.737 118.945 330.56C118.581 330.373 118.175 330.28 117.727 330.28C117.083 330.28 116.533 330.485 116.075 330.896C115.627 331.307 115.371 331.876 115.305 332.604H120.149ZM122.951 333.136C122.951 332.352 123.11 331.666 123.427 331.078C123.744 330.481 124.178 330.019 124.729 329.692C125.289 329.365 125.91 329.202 126.591 329.202C127.263 329.202 127.846 329.347 128.341 329.636C128.836 329.925 129.204 330.289 129.447 330.728V329.328H130.735V337H129.447V335.572C129.195 336.02 128.817 336.393 128.313 336.692C127.818 336.981 127.24 337.126 126.577 337.126C125.896 337.126 125.28 336.958 124.729 336.622C124.178 336.286 123.744 335.815 123.427 335.208C123.11 334.601 122.951 333.911 122.951 333.136ZM129.447 333.15C129.447 332.571 129.33 332.067 129.097 331.638C128.864 331.209 128.546 330.882 128.145 330.658C127.753 330.425 127.319 330.308 126.843 330.308C126.367 330.308 125.933 330.42 125.541 330.644C125.149 330.868 124.836 331.195 124.603 331.624C124.37 332.053 124.253 332.557 124.253 333.136C124.253 333.724 124.37 334.237 124.603 334.676C124.836 335.105 125.149 335.437 125.541 335.67C125.933 335.894 126.367 336.006 126.843 336.006C127.319 336.006 127.753 335.894 128.145 335.67C128.546 335.437 128.864 335.105 129.097 334.676C129.33 334.237 129.447 333.729 129.447 333.15ZM137.452 337L134.442 333.612V337H133.168V326.64H134.442V332.73L137.396 329.328H139.174L135.562 333.15L139.188 337H137.452ZM148.474 329.188C149.052 329.188 149.575 329.314 150.042 329.566C150.508 329.809 150.872 330.177 151.134 330.672C151.404 331.167 151.54 331.769 151.54 332.478V337H150.28V332.66C150.28 331.895 150.088 331.311 149.706 330.91C149.323 330.499 148.8 330.294 148.138 330.294C147.466 330.294 146.929 330.504 146.528 330.924C146.136 331.344 145.94 331.955 145.94 332.758V337H144.666V326.64H145.94V330.42C146.192 330.028 146.537 329.725 146.976 329.51C147.424 329.295 147.923 329.188 148.474 329.188ZM157.247 337.126C156.528 337.126 155.875 336.963 155.287 336.636C154.708 336.309 154.251 335.847 153.915 335.25C153.588 334.643 153.425 333.943 153.425 333.15C153.425 332.366 153.593 331.675 153.929 331.078C154.274 330.471 154.741 330.009 155.329 329.692C155.917 329.365 156.575 329.202 157.303 329.202C158.031 329.202 158.689 329.365 159.277 329.692C159.865 330.009 160.327 330.467 160.663 331.064C161.008 331.661 161.181 332.357 161.181 333.15C161.181 333.943 161.003 334.643 160.649 335.25C160.303 335.847 159.832 336.309 159.235 336.636C158.637 336.963 157.975 337.126 157.247 337.126ZM157.247 336.006C157.704 336.006 158.133 335.899 158.535 335.684C158.936 335.469 159.258 335.147 159.501 334.718C159.753 334.289 159.879 333.766 159.879 333.15C159.879 332.534 159.757 332.011 159.515 331.582C159.272 331.153 158.955 330.835 158.563 330.63C158.171 330.415 157.746 330.308 157.289 330.308C156.822 330.308 156.393 330.415 156.001 330.63C155.618 330.835 155.31 331.153 155.077 331.582C154.843 332.011 154.727 332.534 154.727 333.15C154.727 333.775 154.839 334.303 155.063 334.732C155.296 335.161 155.604 335.483 155.987 335.698C156.369 335.903 156.789 336.006 157.247 336.006ZM169.94 329.328V337H168.666V335.866C168.423 336.258 168.082 336.566 167.644 336.79C167.214 337.005 166.738 337.112 166.216 337.112C165.618 337.112 165.082 336.991 164.606 336.748C164.13 336.496 163.752 336.123 163.472 335.628C163.201 335.133 163.066 334.531 163.066 333.822V329.328H164.326V333.654C164.326 334.41 164.517 334.993 164.9 335.404C165.282 335.805 165.805 336.006 166.468 336.006C167.149 336.006 167.686 335.796 168.078 335.376C168.47 334.956 168.666 334.345 168.666 333.542V329.328H169.94ZM173.645 330.574C173.869 330.135 174.186 329.795 174.597 329.552C175.017 329.309 175.525 329.188 176.123 329.188V330.504H175.787C174.359 330.504 173.645 331.279 173.645 332.828V337H172.371V329.328H173.645V330.574Z" fill="#4D4D4D"/>
<path d="M102.104 140L99.864 136.108H98.646V140H97.05V130.27H100.41C101.157 130.27 101.787 130.401 102.3 130.662C102.823 130.923 103.21 131.273 103.462 131.712C103.723 132.151 103.854 132.641 103.854 133.182C103.854 133.817 103.667 134.395 103.294 134.918C102.93 135.431 102.365 135.781 101.6 135.968L104.008 140H102.104ZM98.646 134.834H100.41C101.007 134.834 101.455 134.685 101.754 134.386C102.062 134.087 102.216 133.686 102.216 133.182C102.216 132.678 102.067 132.286 101.768 132.006C101.469 131.717 101.017 131.572 100.41 131.572H98.646V134.834ZM113.246 135.954C113.246 136.243 113.227 136.505 113.19 136.738H107.296C107.342 137.354 107.571 137.849 107.982 138.222C108.392 138.595 108.896 138.782 109.494 138.782C110.352 138.782 110.959 138.423 111.314 137.704H113.036C112.802 138.413 112.378 138.997 111.762 139.454C111.155 139.902 110.399 140.126 109.494 140.126C108.756 140.126 108.094 139.963 107.506 139.636C106.927 139.3 106.47 138.833 106.134 138.236C105.807 137.629 105.644 136.929 105.644 136.136C105.644 135.343 105.802 134.647 106.12 134.05C106.446 133.443 106.899 132.977 107.478 132.65C108.066 132.323 108.738 132.16 109.494 132.16C110.222 132.16 110.87 132.319 111.44 132.636C112.009 132.953 112.452 133.401 112.77 133.98C113.087 134.549 113.246 135.207 113.246 135.954ZM111.58 135.45C111.57 134.862 111.36 134.391 110.95 134.036C110.539 133.681 110.03 133.504 109.424 133.504C108.873 133.504 108.402 133.681 108.01 134.036C107.618 134.381 107.384 134.853 107.31 135.45H111.58ZM118.078 138.572L120.262 132.286H121.956L119.016 140H117.112L114.186 132.286H115.894L118.078 138.572ZM130.513 135.954C130.513 136.243 130.494 136.505 130.457 136.738H124.563C124.609 137.354 124.838 137.849 125.249 138.222C125.659 138.595 126.163 138.782 126.761 138.782C127.619 138.782 128.226 138.423 128.581 137.704H130.303C130.069 138.413 129.645 138.997 129.029 139.454C128.422 139.902 127.666 140.126 126.761 140.126C126.023 140.126 125.361 139.963 124.773 139.636C124.194 139.3 123.737 138.833 123.401 138.236C123.074 137.629 122.911 136.929 122.911 136.136C122.911 135.343 123.069 134.647 123.387 134.05C123.713 133.443 124.166 132.977 124.745 132.65C125.333 132.323 126.005 132.16 126.761 132.16C127.489 132.16 128.137 132.319 128.707 132.636C129.276 132.953 129.719 133.401 130.037 133.98C130.354 134.549 130.513 135.207 130.513 135.954ZM128.847 135.45C128.837 134.862 128.627 134.391 128.217 134.036C127.806 133.681 127.297 133.504 126.691 133.504C126.14 133.504 125.669 133.681 125.277 134.036C124.885 134.381 124.651 134.853 124.577 135.45H128.847ZM136.255 132.16C136.862 132.16 137.403 132.286 137.879 132.538C138.365 132.79 138.743 133.163 139.013 133.658C139.284 134.153 139.419 134.75 139.419 135.45V140H137.837V135.688C137.837 134.997 137.665 134.47 137.319 134.106C136.974 133.733 136.503 133.546 135.905 133.546C135.308 133.546 134.832 133.733 134.477 134.106C134.132 134.47 133.959 134.997 133.959 135.688V140H132.363V132.286H133.959V133.168C134.221 132.851 134.552 132.603 134.953 132.426C135.364 132.249 135.798 132.16 136.255 132.16ZM148.721 132.286V140H147.125V139.09C146.873 139.407 146.542 139.659 146.131 139.846C145.73 140.023 145.3 140.112 144.843 140.112C144.236 140.112 143.69 139.986 143.205 139.734C142.729 139.482 142.351 139.109 142.071 138.614C141.8 138.119 141.665 137.522 141.665 136.822V132.286H143.247V136.584C143.247 137.275 143.42 137.807 143.765 138.18C144.11 138.544 144.582 138.726 145.179 138.726C145.776 138.726 146.248 138.544 146.593 138.18C146.948 137.807 147.125 137.275 147.125 136.584V132.286H148.721ZM158.177 135.954C158.177 136.243 158.158 136.505 158.121 136.738H152.227C152.274 137.354 152.502 137.849 152.913 138.222C153.324 138.595 153.828 138.782 154.425 138.782C155.284 138.782 155.89 138.423 156.245 137.704H157.967C157.734 138.413 157.309 138.997 156.693 139.454C156.086 139.902 155.33 140.126 154.425 140.126C153.688 140.126 153.025 139.963 152.437 139.636C151.858 139.3 151.401 138.833 151.065 138.236C150.738 137.629 150.575 136.929 150.575 136.136C150.575 135.343 150.734 134.647 151.051 134.05C151.378 133.443 151.83 132.977 152.409 132.65C152.997 132.323 153.669 132.16 154.425 132.16C155.153 132.16 155.802 132.319 156.371 132.636C156.94 132.953 157.384 133.401 157.701 133.98C158.018 134.549 158.177 135.207 158.177 135.954ZM156.511 135.45C156.502 134.862 156.292 134.391 155.881 134.036C155.47 133.681 154.962 133.504 154.355 133.504C153.804 133.504 153.333 133.681 152.941 134.036C152.549 134.381 152.316 134.853 152.241 135.45H156.511ZM167.052 132.16C167.65 132.16 168.177 132.281 168.634 132.524C169.101 132.757 169.465 133.051 169.726 133.406V132.286H171.336V140.126C171.336 140.835 171.187 141.465 170.888 142.016C170.59 142.576 170.156 143.015 169.586 143.332C169.026 143.649 168.354 143.808 167.57 143.808C166.525 143.808 165.657 143.561 164.966 143.066C164.276 142.581 163.884 141.918 163.79 141.078H165.372C165.494 141.479 165.75 141.801 166.142 142.044C166.544 142.296 167.02 142.422 167.57 142.422C168.214 142.422 168.732 142.226 169.124 141.834C169.526 141.442 169.726 140.873 169.726 140.126V138.838C169.456 139.202 169.087 139.51 168.62 139.762C168.163 140.005 167.64 140.126 167.052 140.126C166.38 140.126 165.764 139.958 165.204 139.622C164.654 139.277 164.215 138.801 163.888 138.194C163.571 137.578 163.412 136.883 163.412 136.108C163.412 135.333 163.571 134.647 163.888 134.05C164.215 133.453 164.654 132.991 165.204 132.664C165.764 132.328 166.38 132.16 167.052 132.16ZM169.726 136.136C169.726 135.604 169.614 135.142 169.39 134.75C169.176 134.358 168.891 134.059 168.536 133.854C168.182 133.649 167.799 133.546 167.388 133.546C166.978 133.546 166.595 133.649 166.24 133.854C165.886 134.05 165.596 134.344 165.372 134.736C165.158 135.119 165.05 135.576 165.05 136.108C165.05 136.64 165.158 137.107 165.372 137.508C165.596 137.909 165.886 138.217 166.24 138.432C166.604 138.637 166.987 138.74 167.388 138.74C167.799 138.74 168.182 138.637 168.536 138.432C168.891 138.227 169.176 137.928 169.39 137.536C169.614 137.135 169.726 136.668 169.726 136.136ZM180.783 135.954C180.783 136.243 180.764 136.505 180.727 136.738H174.833C174.879 137.354 175.108 137.849 175.519 138.222C175.929 138.595 176.433 138.782 177.031 138.782C177.889 138.782 178.496 138.423 178.851 137.704H180.573C180.339 138.413 179.915 138.997 179.299 139.454C178.692 139.902 177.936 140.126 177.031 140.126C176.293 140.126 175.631 139.963 175.043 139.636C174.464 139.3 174.007 138.833 173.671 138.236C173.344 137.629 173.181 136.929 173.181 136.136C173.181 135.343 173.339 134.647 173.657 134.05C173.983 133.443 174.436 132.977 175.015 132.65C175.603 132.323 176.275 132.16 177.031 132.16C177.759 132.16 178.407 132.319 178.977 132.636C179.546 132.953 179.989 133.401 180.307 133.98C180.624 134.549 180.783 135.207 180.783 135.954ZM179.117 135.45C179.107 134.862 178.897 134.391 178.487 134.036C178.076 133.681 177.567 133.504 176.961 133.504C176.41 133.504 175.939 133.681 175.547 134.036C175.155 134.381 174.921 134.853 174.847 135.45H179.117ZM186.525 132.16C187.132 132.16 187.673 132.286 188.149 132.538C188.635 132.79 189.013 133.163 189.283 133.658C189.554 134.153 189.689 134.75 189.689 135.45V140H188.107V135.688C188.107 134.997 187.935 134.47 187.589 134.106C187.244 133.733 186.773 133.546 186.175 133.546C185.578 133.546 185.102 133.733 184.747 134.106C184.402 134.47 184.229 134.997 184.229 135.688V140H182.633V132.286H184.229V133.168C184.491 132.851 184.822 132.603 185.223 132.426C185.634 132.249 186.068 132.16 186.525 132.16ZM199.075 135.954C199.075 136.243 199.056 136.505 199.019 136.738H193.125C193.172 137.354 193.4 137.849 193.811 138.222C194.222 138.595 194.726 138.782 195.323 138.782C196.182 138.782 196.788 138.423 197.143 137.704H198.865C198.632 138.413 198.207 138.997 197.591 139.454C196.984 139.902 196.228 140.126 195.323 140.126C194.586 140.126 193.923 139.963 193.335 139.636C192.756 139.3 192.299 138.833 191.963 138.236C191.636 137.629 191.473 136.929 191.473 136.136C191.473 135.343 191.632 134.647 191.949 134.05C192.276 133.443 192.728 132.977 193.307 132.65C193.895 132.323 194.567 132.16 195.323 132.16C196.051 132.16 196.7 132.319 197.269 132.636C197.838 132.953 198.282 133.401 198.599 133.98C198.916 134.549 199.075 135.207 199.075 135.954ZM197.409 135.45C197.4 134.862 197.19 134.391 196.779 134.036C196.368 133.681 195.86 133.504 195.253 133.504C194.702 133.504 194.231 133.681 193.839 134.036C193.447 134.381 193.214 134.853 193.139 135.45H197.409ZM202.522 133.406C202.755 133.014 203.063 132.711 203.446 132.496C203.838 132.272 204.3 132.16 204.832 132.16V133.812H204.426C203.8 133.812 203.324 133.971 202.998 134.288C202.68 134.605 202.522 135.156 202.522 135.94V140H200.926V132.286H202.522V133.406ZM206.047 136.108C206.047 135.333 206.205 134.647 206.523 134.05C206.849 133.453 207.288 132.991 207.839 132.664C208.399 132.328 209.015 132.16 209.687 132.16C210.293 132.16 210.821 132.281 211.269 132.524C211.726 132.757 212.09 133.051 212.361 133.406V132.286H213.971V140H212.361V138.852C212.09 139.216 211.721 139.519 211.255 139.762C210.788 140.005 210.256 140.126 209.659 140.126C208.996 140.126 208.389 139.958 207.839 139.622C207.288 139.277 206.849 138.801 206.523 138.194C206.205 137.578 206.047 136.883 206.047 136.108ZM212.361 136.136C212.361 135.604 212.249 135.142 212.025 134.75C211.81 134.358 211.525 134.059 211.171 133.854C210.816 133.649 210.433 133.546 210.023 133.546C209.612 133.546 209.229 133.649 208.875 133.854C208.52 134.05 208.231 134.344 208.007 134.736C207.792 135.119 207.685 135.576 207.685 136.108C207.685 136.64 207.792 137.107 208.007 137.508C208.231 137.909 208.52 138.217 208.875 138.432C209.239 138.637 209.621 138.74 210.023 138.74C210.433 138.74 210.816 138.637 211.171 138.432C211.525 138.227 211.81 137.928 212.025 137.536C212.249 137.135 212.361 136.668 212.361 136.136ZM218.209 133.588V137.858C218.209 138.147 218.274 138.357 218.405 138.488C218.545 138.609 218.778 138.67 219.105 138.67H220.085V140H218.825C218.106 140 217.556 139.832 217.173 139.496C216.79 139.16 216.599 138.614 216.599 137.858V133.588H215.689V132.286H216.599V130.368H218.209V132.286H220.085V133.588H218.209ZM228.906 135.954C228.906 136.243 228.887 136.505 228.85 136.738H222.956C223.003 137.354 223.231 137.849 223.642 138.222C224.053 138.595 224.557 138.782 225.154 138.782C226.013 138.782 226.619 138.423 226.974 137.704H228.696C228.463 138.413 228.038 138.997 227.422 139.454C226.815 139.902 226.059 140.126 225.154 140.126C224.417 140.126 223.754 139.963 223.166 139.636C222.587 139.3 222.13 138.833 221.794 138.236C221.467 137.629 221.304 136.929 221.304 136.136C221.304 135.343 221.463 134.647 221.78 134.05C222.107 133.443 222.559 132.977 223.138 132.65C223.726 132.323 224.398 132.16 225.154 132.16C225.882 132.16 226.531 132.319 227.1 132.636C227.669 132.953 228.113 133.401 228.43 133.98C228.747 134.549 228.906 135.207 228.906 135.954ZM227.24 135.45C227.231 134.862 227.021 134.391 226.61 134.036C226.199 133.681 225.691 133.504 225.084 133.504C224.533 133.504 224.062 133.681 223.67 134.036C223.278 134.381 223.045 134.853 222.97 135.45H227.24ZM230.225 136.108C230.225 135.333 230.383 134.647 230.701 134.05C231.027 133.453 231.466 132.991 232.017 132.664C232.577 132.328 233.197 132.16 233.879 132.16C234.383 132.16 234.877 132.272 235.363 132.496C235.857 132.711 236.249 133 236.539 133.364V129.64H238.149V140H236.539V138.838C236.277 139.211 235.913 139.519 235.447 139.762C234.989 140.005 234.462 140.126 233.865 140.126C233.193 140.126 232.577 139.958 232.017 139.622C231.466 139.277 231.027 138.801 230.701 138.194C230.383 137.578 230.225 136.883 230.225 136.108ZM236.539 136.136C236.539 135.604 236.427 135.142 236.203 134.75C235.988 134.358 235.703 134.059 235.349 133.854C234.994 133.649 234.611 133.546 234.201 133.546C233.79 133.546 233.407 133.649 233.053 133.854C232.698 134.05 232.409 134.344 232.185 134.736C231.97 135.119 231.863 135.576 231.863 136.108C231.863 136.64 231.97 137.107 232.185 137.508C232.409 137.909 232.698 138.217 233.053 138.432C233.417 138.637 233.799 138.74 234.201 138.74C234.611 138.74 234.994 138.637 235.349 138.432C235.703 138.227 235.988 137.928 236.203 137.536C236.427 137.135 236.539 136.668 236.539 136.136ZM254.802 132.286L252.408 140H250.728L249.174 134.302L247.62 140H245.94L243.532 132.286H245.156L246.766 138.488L248.404 132.286H250.07L251.638 138.46L253.234 132.286H254.802ZM257.086 131.264C256.797 131.264 256.554 131.166 256.358 130.97C256.162 130.774 256.064 130.531 256.064 130.242C256.064 129.953 256.162 129.71 256.358 129.514C256.554 129.318 256.797 129.22 257.086 129.22C257.366 129.22 257.604 129.318 257.8 129.514C257.996 129.71 258.094 129.953 258.094 130.242C258.094 130.531 257.996 130.774 257.8 130.97C257.604 131.166 257.366 131.264 257.086 131.264ZM257.87 132.286V140H256.274V132.286H257.87ZM262.108 133.588V137.858C262.108 138.147 262.173 138.357 262.304 138.488C262.444 138.609 262.677 138.67 263.004 138.67H263.984V140H262.724C262.005 140 261.454 139.832 261.072 139.496C260.689 139.16 260.498 138.614 260.498 137.858V133.588H259.588V132.286H260.498V130.368H262.108V132.286H263.984V133.588H262.108ZM269.725 132.16C270.313 132.16 270.835 132.286 271.293 132.538C271.759 132.79 272.123 133.163 272.385 133.658C272.655 134.153 272.791 134.75 272.791 135.45V140H271.209V135.688C271.209 134.997 271.036 134.47 270.691 134.106C270.345 133.733 269.874 133.546 269.277 133.546C268.679 133.546 268.203 133.733 267.849 134.106C267.503 134.47 267.331 134.997 267.331 135.688V140H265.735V129.64H267.331V133.182C267.601 132.855 267.942 132.603 268.353 132.426C268.773 132.249 269.23 132.16 269.725 132.16ZM286.793 130.27V140H285.197V135.744H280.619V140H279.023V130.27H280.619V134.442H285.197V130.27H286.793ZM288.642 136.108C288.642 135.333 288.801 134.647 289.118 134.05C289.445 133.453 289.884 132.991 290.434 132.664C290.994 132.328 291.61 132.16 292.282 132.16C292.889 132.16 293.416 132.281 293.864 132.524C294.322 132.757 294.686 133.051 294.956 133.406V132.286H296.566V140H294.956V138.852C294.686 139.216 294.317 139.519 293.85 139.762C293.384 140.005 292.852 140.126 292.254 140.126C291.592 140.126 290.985 139.958 290.434 139.622C289.884 139.277 289.445 138.801 289.118 138.194C288.801 137.578 288.642 136.883 288.642 136.108ZM294.956 136.136C294.956 135.604 294.844 135.142 294.62 134.75C294.406 134.358 294.121 134.059 293.766 133.854C293.412 133.649 293.029 133.546 292.618 133.546C292.208 133.546 291.825 133.649 291.47 133.854C291.116 134.05 290.826 134.344 290.602 134.736C290.388 135.119 290.28 135.576 290.28 136.108C290.28 136.64 290.388 137.107 290.602 137.508C290.826 137.909 291.116 138.217 291.47 138.432C291.834 138.637 292.217 138.74 292.618 138.74C293.029 138.74 293.412 138.637 293.766 138.432C294.121 138.227 294.406 137.928 294.62 137.536C294.844 137.135 294.956 136.668 294.956 136.136ZM300.539 133.42C300.809 133.065 301.178 132.767 301.645 132.524C302.111 132.281 302.639 132.16 303.227 132.16C303.899 132.16 304.51 132.328 305.061 132.664C305.621 132.991 306.059 133.453 306.377 134.05C306.694 134.647 306.853 135.333 306.853 136.108C306.853 136.883 306.694 137.578 306.377 138.194C306.059 138.801 305.621 139.277 305.061 139.622C304.51 139.958 303.899 140.126 303.227 140.126C302.639 140.126 302.116 140.009 301.659 139.776C301.201 139.533 300.828 139.235 300.539 138.88V143.668H298.943V132.286H300.539V133.42ZM305.229 136.108C305.229 135.576 305.117 135.119 304.893 134.736C304.678 134.344 304.389 134.05 304.025 133.854C303.67 133.649 303.287 133.546 302.877 133.546C302.475 133.546 302.093 133.649 301.729 133.854C301.374 134.059 301.085 134.358 300.861 134.75C300.646 135.142 300.539 135.604 300.539 136.136C300.539 136.668 300.646 137.135 300.861 137.536C301.085 137.928 301.374 138.227 301.729 138.432C302.093 138.637 302.475 138.74 302.877 138.74C303.287 138.74 303.67 138.637 304.025 138.432C304.389 138.217 304.678 137.909 304.893 137.508C305.117 137.107 305.229 136.64 305.229 136.108ZM310.307 133.42C310.578 133.065 310.946 132.767 311.413 132.524C311.88 132.281 312.407 132.16 312.995 132.16C313.667 132.16 314.278 132.328 314.829 132.664C315.389 132.991 315.828 133.453 316.145 134.05C316.462 134.647 316.621 135.333 316.621 136.108C316.621 136.883 316.462 137.578 316.145 138.194C315.828 138.801 315.389 139.277 314.829 139.622C314.278 139.958 313.667 140.126 312.995 140.126C312.407 140.126 311.884 140.009 311.427 139.776C310.97 139.533 310.596 139.235 310.307 138.88V143.668H308.711V132.286H310.307V133.42ZM314.997 136.108C314.997 135.576 314.885 135.119 314.661 134.736C314.446 134.344 314.157 134.05 313.793 133.854C313.438 133.649 313.056 133.546 312.645 133.546C312.244 133.546 311.861 133.649 311.497 133.854C311.142 134.059 310.853 134.358 310.629 134.75C310.414 135.142 310.307 135.604 310.307 136.136C310.307 136.668 310.414 137.135 310.629 137.536C310.853 137.928 311.142 138.227 311.497 138.432C311.861 138.637 312.244 138.74 312.645 138.74C313.056 138.74 313.438 138.637 313.793 138.432C314.157 138.217 314.446 137.909 314.661 137.508C314.885 137.107 314.997 136.64 314.997 136.108ZM325.423 132.286L320.691 143.626H319.039L320.607 139.874L317.569 132.286H319.347L321.517 138.166L323.771 132.286H325.423ZM334.678 130.27V140H333.082V135.744H328.504V140H326.908V130.27H328.504V134.442H333.082V130.27H334.678ZM340.405 140.126C339.677 140.126 339.019 139.963 338.431 139.636C337.843 139.3 337.381 138.833 337.045 138.236C336.709 137.629 336.541 136.929 336.541 136.136C336.541 135.352 336.713 134.657 337.059 134.05C337.404 133.443 337.875 132.977 338.473 132.65C339.07 132.323 339.737 132.16 340.475 132.16C341.212 132.16 341.879 132.323 342.477 132.65C343.074 132.977 343.545 133.443 343.891 134.05C344.236 134.657 344.409 135.352 344.409 136.136C344.409 136.92 344.231 137.615 343.877 138.222C343.522 138.829 343.037 139.3 342.421 139.636C341.814 139.963 341.142 140.126 340.405 140.126ZM340.405 138.74C340.815 138.74 341.198 138.642 341.553 138.446C341.917 138.25 342.211 137.956 342.435 137.564C342.659 137.172 342.771 136.696 342.771 136.136C342.771 135.576 342.663 135.105 342.449 134.722C342.234 134.33 341.949 134.036 341.595 133.84C341.24 133.644 340.857 133.546 340.447 133.546C340.036 133.546 339.653 133.644 339.299 133.84C338.953 134.036 338.678 134.33 338.473 134.722C338.267 135.105 338.165 135.576 338.165 136.136C338.165 136.967 338.375 137.611 338.795 138.068C339.224 138.516 339.761 138.74 340.405 138.74ZM353.252 132.286V140H351.656V139.09C351.404 139.407 351.073 139.659 350.662 139.846C350.261 140.023 349.832 140.112 349.374 140.112C348.768 140.112 348.222 139.986 347.736 139.734C347.26 139.482 346.882 139.109 346.602 138.614C346.332 138.119 346.196 137.522 346.196 136.822V132.286H347.778V136.584C347.778 137.275 347.951 137.807 348.296 138.18C348.642 138.544 349.113 138.726 349.71 138.726C350.308 138.726 350.779 138.544 351.124 138.18C351.479 137.807 351.656 137.275 351.656 136.584V132.286H353.252ZM357.234 133.406C357.468 133.014 357.776 132.711 358.158 132.496C358.55 132.272 359.012 132.16 359.544 132.16V133.812H359.138C358.513 133.812 358.037 133.971 357.71 134.288C357.393 134.605 357.234 135.156 357.234 135.94V140H355.638V132.286H357.234V133.406ZM365.729 140.098C364.824 140.098 363.989 139.888 363.223 139.468C362.467 139.039 361.865 138.446 361.417 137.69C360.979 136.925 360.759 136.066 360.759 135.114C360.759 134.162 360.979 133.308 361.417 132.552C361.865 131.796 362.467 131.208 363.223 130.788C363.989 130.359 364.824 130.144 365.729 130.144C366.644 130.144 367.479 130.359 368.235 130.788C369.001 131.208 369.603 131.796 370.041 132.552C370.48 133.308 370.699 134.162 370.699 135.114C370.699 136.066 370.48 136.925 370.041 137.69C369.603 138.446 369.001 139.039 368.235 139.468C367.479 139.888 366.644 140.098 365.729 140.098ZM365.729 138.712C366.373 138.712 366.947 138.567 367.451 138.278C367.955 137.979 368.347 137.559 368.627 137.018C368.917 136.467 369.061 135.833 369.061 135.114C369.061 134.395 368.917 133.765 368.627 133.224C368.347 132.683 367.955 132.267 367.451 131.978C366.947 131.689 366.373 131.544 365.729 131.544C365.085 131.544 364.511 131.689 364.007 131.978C363.503 132.267 363.107 132.683 362.817 133.224C362.537 133.765 362.397 134.395 362.397 135.114C362.397 135.833 362.537 136.467 362.817 137.018C363.107 137.559 363.503 137.979 364.007 138.278C364.511 138.567 365.085 138.712 365.729 138.712ZM380.544 140H378.948L374.146 132.734V140H372.55V130.256H374.146L378.948 137.508V130.256H380.544V140ZM384.516 131.558V134.414H387.876V135.716H384.516V138.698H388.296V140H382.92V130.256H388.296V131.558H384.516Z" fill="#732DD9"/>
<path d="M15 95.784L11.01 98.108V99.648H15V100.922H5.242V97.772C5.242 97.0347 5.368 96.414 5.62 95.91C5.872 95.3967 6.21267 95.014 6.642 94.762C7.07133 94.51 7.56133 94.384 8.112 94.384C8.784 94.384 9.37667 94.58 9.89 94.972C10.4033 95.3547 10.744 95.9333 10.912 96.708L15 94.258V95.784ZM9.988 99.648V97.772C9.988 97.0813 9.82 96.5633 9.484 96.218C9.13867 95.8727 8.68133 95.7 8.112 95.7C7.53333 95.7 7.08533 95.8727 6.768 96.218C6.45067 96.554 6.292 97.072 6.292 97.772V99.648H9.988ZM10.87 85.1244C11.1127 85.1244 11.3693 85.1384 11.64 85.1664V91.2984C12.396 91.2518 12.9887 90.9951 13.418 90.5284C13.838 90.0524 14.048 89.4784 14.048 88.8064C14.048 88.2558 13.922 87.7984 13.67 87.4344C13.4087 87.0611 13.0633 86.7998 12.634 86.6504V85.2784C13.3713 85.4838 13.9733 85.8944 14.44 86.5104C14.8973 87.1264 15.126 87.8918 15.126 88.8064C15.126 89.5344 14.9627 90.1878 14.636 90.7664C14.3093 91.3358 13.8473 91.7838 13.25 92.1104C12.6433 92.4371 11.9433 92.6004 11.15 92.6004C10.3567 92.6004 9.66133 92.4418 9.064 92.1244C8.46667 91.8071 8.00933 91.3638 7.692 90.7944C7.36533 90.2158 7.202 89.5531 7.202 88.8064C7.202 88.0784 7.36067 87.4344 7.678 86.8744C7.99533 86.3144 8.434 85.8851 8.994 85.5864C9.54467 85.2784 10.17 85.1244 10.87 85.1244ZM10.604 86.4404C10.1187 86.4404 9.70333 86.5478 9.358 86.7624C9.00333 86.9771 8.73733 87.2711 8.56 87.6444C8.37333 88.0084 8.28 88.4144 8.28 88.8624C8.28 89.5064 8.48533 90.0571 8.896 90.5144C9.30667 90.9624 9.876 91.2191 10.604 91.2844V86.4404ZM13.824 80.3068L7.328 77.9268V76.5688L15 79.5788L15 81.0628L7.328 84.0728V82.7008L13.824 80.3068ZM10.87 68.0351C11.1127 68.0351 11.3693 68.0491 11.64 68.0771V74.2091C12.396 74.1625 12.9887 73.9058 13.418 73.4391C13.838 72.9631 14.048 72.3891 14.048 71.7171C14.048 71.1665 13.922 70.7091 13.67 70.3451C13.4087 69.9718 13.0633 69.7105 12.634 69.5611V68.1891C13.3713 68.3945 13.9733 68.8051 14.44 69.4211C14.8973 70.0371 15.126 70.8025 15.126 71.7171C15.126 72.4451 14.9627 73.0985 14.636 73.6771C14.3093 74.2465 13.8473 74.6945 13.25 75.0211C12.6433 75.3478 11.9433 75.5111 11.15 75.5111C10.3567 75.5111 9.66133 75.3525 9.064 75.0351C8.46667 74.7178 8.00933 74.2745 7.692 73.7051C7.36533 73.1265 7.202 72.4638 7.202 71.7171C7.202 70.9891 7.36067 70.3451 7.678 69.7851C7.99533 69.2251 8.434 68.7958 8.994 68.4971C9.54467 68.1891 10.17 68.0351 10.87 68.0351ZM10.604 69.3511C10.1187 69.3511 9.70333 69.4585 9.358 69.6731C9.00333 69.8878 8.73733 70.1818 8.56 70.5551C8.37333 70.9191 8.28 71.3251 8.28 71.7731C8.28 72.4171 8.48533 72.9678 8.896 73.4251C9.30667 73.8731 9.876 74.1298 10.604 74.1951V69.3511ZM7.188 62.3355C7.188 61.4022 7.47267 60.6462 8.042 60.0675C8.602 59.4888 9.414 59.1995 10.478 59.1995H15V60.4595H10.66C9.89467 60.4595 9.31133 60.6508 8.91 61.0335C8.49933 61.4162 8.294 61.9388 8.294 62.6015C8.294 63.2735 8.504 63.8102 8.924 64.2115C9.344 64.6035 9.95533 64.7995 10.758 64.7995H15V66.0735H7.328V64.7995H8.42C8.028 64.5475 7.72467 64.2068 7.51 63.7775C7.29533 63.3388 7.188 62.8582 7.188 62.3355ZM7.328 50.0344H15V51.3084H13.866C14.258 51.5511 14.566 51.8917 14.79 52.3304C15.0047 52.7597 15.112 53.2357 15.112 53.7584C15.112 54.3557 14.9907 54.8924 14.748 55.3684C14.496 55.8444 14.1227 56.2224 13.628 56.5024C13.1333 56.7731 12.5313 56.9084 11.822 56.9084H7.328V55.6484H11.654C12.41 55.6484 12.9933 55.4571 13.404 55.0744C13.8053 54.6917 14.006 54.1691 14.006 53.5064C14.006 52.8251 13.796 52.2884 13.376 51.8964C12.956 51.5044 12.3447 51.3084 11.542 51.3084H7.328V50.0344ZM10.87 40.6033C11.1127 40.6033 11.3693 40.6173 11.64 40.6453V46.7773C12.396 46.7307 12.9887 46.474 13.418 46.0073C13.838 45.5313 14.048 44.9573 14.048 44.2853C14.048 43.7347 13.922 43.2773 13.67 42.9133C13.4087 42.54 13.0633 42.2787 12.634 42.1293V40.7573C13.3713 40.9627 13.9733 41.3733 14.44 41.9893C14.8973 42.6053 15.126 43.3707 15.126 44.2853C15.126 45.0133 14.9627 45.6667 14.636 46.2453C14.3093 46.8147 13.8473 47.2627 13.25 47.5893C12.6433 47.916 11.9433 48.0793 11.15 48.0793C10.3567 48.0793 9.66133 47.9207 9.064 47.6033C8.46667 47.286 8.00933 46.8427 7.692 46.2733C7.36533 45.6947 7.202 45.032 7.202 44.2853C7.202 43.5573 7.36067 42.9133 7.678 42.3533C7.99533 41.7933 8.434 41.364 8.994 41.0653C9.54467 40.7573 10.17 40.6033 10.87 40.6033ZM10.604 41.9193C10.1187 41.9193 9.70333 42.0267 9.358 42.2413C9.00333 42.456 8.73733 42.75 8.56 43.1233C8.37333 43.4873 8.28 43.8933 8.28 44.3413C8.28 44.9853 8.48533 45.536 8.896 45.9933C9.30667 46.4413 9.876 46.698 10.604 46.7633V41.9193Z" fill="#4D4D4D"/>
<path d="M316.602 330.098C316.602 330.91 316.322 331.587 315.762 332.128C315.211 332.66 314.367 332.926 313.228 332.926H311.352V337H310.078V327.242H313.228C314.329 327.242 315.165 327.508 315.734 328.04C316.313 328.572 316.602 329.258 316.602 330.098ZM313.228 331.876C313.937 331.876 314.46 331.722 314.796 331.414C315.132 331.106 315.3 330.667 315.3 330.098C315.3 328.894 314.609 328.292 313.228 328.292H311.352V331.876H313.228ZM325.465 332.87C325.465 333.113 325.451 333.369 325.423 333.64H319.291C319.338 334.396 319.595 334.989 320.061 335.418C320.537 335.838 321.111 336.048 321.783 336.048C322.334 336.048 322.791 335.922 323.155 335.67C323.529 335.409 323.79 335.063 323.939 334.634H325.311C325.106 335.371 324.695 335.973 324.079 336.44C323.463 336.897 322.698 337.126 321.783 337.126C321.055 337.126 320.402 336.963 319.823 336.636C319.254 336.309 318.806 335.847 318.479 335.25C318.153 334.643 317.989 333.943 317.989 333.15C317.989 332.357 318.148 331.661 318.465 331.064C318.783 330.467 319.226 330.009 319.795 329.692C320.374 329.365 321.037 329.202 321.783 329.202C322.511 329.202 323.155 329.361 323.715 329.678C324.275 329.995 324.705 330.434 325.003 330.994C325.311 331.545 325.465 332.17 325.465 332.87ZM324.149 332.604C324.149 332.119 324.042 331.703 323.827 331.358C323.613 331.003 323.319 330.737 322.945 330.56C322.581 330.373 322.175 330.28 321.727 330.28C321.083 330.28 320.533 330.485 320.075 330.896C319.627 331.307 319.371 331.876 319.305 332.604H324.149ZM326.951 333.136C326.951 332.352 327.11 331.666 327.427 331.078C327.744 330.481 328.178 330.019 328.729 329.692C329.289 329.365 329.91 329.202 330.591 329.202C331.263 329.202 331.846 329.347 332.341 329.636C332.836 329.925 333.204 330.289 333.447 330.728V329.328H334.735V337H333.447V335.572C333.195 336.02 332.817 336.393 332.313 336.692C331.818 336.981 331.24 337.126 330.577 337.126C329.896 337.126 329.28 336.958 328.729 336.622C328.178 336.286 327.744 335.815 327.427 335.208C327.11 334.601 326.951 333.911 326.951 333.136ZM333.447 333.15C333.447 332.571 333.33 332.067 333.097 331.638C332.864 331.209 332.546 330.882 332.145 330.658C331.753 330.425 331.319 330.308 330.843 330.308C330.367 330.308 329.933 330.42 329.541 330.644C329.149 330.868 328.836 331.195 328.603 331.624C328.37 332.053 328.253 332.557 328.253 333.136C328.253 333.724 328.37 334.237 328.603 334.676C328.836 335.105 329.149 335.437 329.541 335.67C329.933 335.894 330.367 336.006 330.843 336.006C331.319 336.006 331.753 335.894 332.145 335.67C332.546 335.437 332.864 335.105 333.097 334.676C333.33 334.237 333.447 333.729 333.447 333.15ZM341.452 337L338.442 333.612V337H337.168V326.64H338.442V332.73L341.396 329.328H343.174L339.562 333.15L343.188 337H341.452ZM352.474 329.188C353.052 329.188 353.575 329.314 354.042 329.566C354.508 329.809 354.872 330.177 355.134 330.672C355.404 331.167 355.54 331.769 355.54 332.478V337H354.28V332.66C354.28 331.895 354.088 331.311 353.706 330.91C353.323 330.499 352.8 330.294 352.138 330.294C351.466 330.294 350.929 330.504 350.528 330.924C350.136 331.344 349.94 331.955 349.94 332.758V337H348.666V326.64H349.94V330.42C350.192 330.028 350.537 329.725 350.976 329.51C351.424 329.295 351.923 329.188 352.474 329.188ZM361.247 337.126C360.528 337.126 359.875 336.963 359.287 336.636C358.708 336.309 358.251 335.847 357.915 335.25C357.588 334.643 357.425 333.943 357.425 333.15C357.425 332.366 357.593 331.675 357.929 331.078C358.274 330.471 358.741 330.009 359.329 329.692C359.917 329.365 360.575 329.202 361.303 329.202C362.031 329.202 362.689 329.365 363.277 329.692C363.865 330.009 364.327 330.467 364.663 331.064C365.008 331.661 365.181 332.357 365.181 333.15C365.181 333.943 365.003 334.643 364.649 335.25C364.303 335.847 363.832 336.309 363.235 336.636C362.637 336.963 361.975 337.126 361.247 337.126ZM361.247 336.006C361.704 336.006 362.133 335.899 362.535 335.684C362.936 335.469 363.258 335.147 363.501 334.718C363.753 334.289 363.879 333.766 363.879 333.15C363.879 332.534 363.757 332.011 363.515 331.582C363.272 331.153 362.955 330.835 362.563 330.63C362.171 330.415 361.746 330.308 361.289 330.308C360.822 330.308 360.393 330.415 360.001 330.63C359.618 330.835 359.31 331.153 359.077 331.582C358.843 332.011 358.727 332.534 358.727 333.15C358.727 333.775 358.839 334.303 359.063 334.732C359.296 335.161 359.604 335.483 359.987 335.698C360.369 335.903 360.789 336.006 361.247 336.006ZM373.94 329.328V337H372.666V335.866C372.423 336.258 372.082 336.566 371.644 336.79C371.214 337.005 370.738 337.112 370.216 337.112C369.618 337.112 369.082 336.991 368.606 336.748C368.13 336.496 367.752 336.123 367.472 335.628C367.201 335.133 367.066 334.531 367.066 333.822V329.328H368.326V333.654C368.326 334.41 368.517 334.993 368.9 335.404C369.282 335.805 369.805 336.006 370.468 336.006C371.149 336.006 371.686 335.796 372.078 335.376C372.47 334.956 372.666 334.345 372.666 333.542V329.328H373.94ZM377.645 330.574C377.869 330.135 378.186 329.795 378.597 329.552C379.017 329.309 379.525 329.188 380.123 329.188V330.504H379.787C378.359 330.504 377.645 331.279 377.645 332.828V337H376.371V329.328H377.645V330.574Z" fill="#4D4D4D"/>
<path d="M58 220.501V117.501C80.6667 106.834 99.6 96.8001 118 96.0001C141 95.0001 220.499 104.494 250 101.501C284.5 98.0007 290 78.5002 324.5 79.0002C352.1 79.4002 383.5 77.5005 431 84.5006V230.001C403.5 206.501 360 155.501 336 159.001C304.767 163.556 263.5 220.501 233 220.501C198 220.501 166.7 160.601 149.5 165.001C132.3 169.401 85 203.501 58 220.501Z" fill="#732DD9" fill-opacity="0.2"/>
<path d="M55 228.5L124.541 172.148C134.89 163.762 149.529 163.204 160.486 170.777L225.052 215.404C236.227 223.128 251.198 222.378 261.546 213.577L321.513 162.574C332.741 153.025 349.241 153.046 360.444 162.623L437.5 228.5" stroke="#FFBE00" stroke-width="2"/>
<path d="M55 131L131.062 94.9944C136.557 92.393 142.713 91.5228 148.715 92.499L237.093 106.876C241.637 107.616 246.29 107.299 250.691 105.952L334.9 80.1736C339.563 78.7461 344.504 78.4769 349.294 79.3894L436.5 96" stroke="#732DD9" stroke-width="2"/>
</svg>
