<svg width="90" height="96" viewBox="0 0 90 96" fill="none" xmlns="http://www.w3.org/2000/svg">
<path d="M62.4996 80.4996C72 77.9999 66.9999 35.4994 66.9999 26.9992C67 9.49943 20.5004 15.0001 20.5 25.4998C20.4992 44.4275 20.5004 47.9983 20.5001 68.4988C20.4998 84.9983 52.9992 82.9992 62.4996 80.4996Z" fill="#FFBE00" fill-opacity="0.2"/>
<path d="M25 45H45V50H25V45Z" fill="#732DD9"/>
<path d="M25 32.5H55V37.5H25V32.5Z" fill="#732DD9"/>
<path d="M25 57.5H37.5V62.5H25V57.5Z" fill="#732DD9"/>
<path d="M62.5 12.5H55V10C55 8.67392 54.4732 7.40215 53.5355 6.46447C52.5979 5.52678 51.3261 5 50 5H30C28.6739 5 27.4021 5.52678 26.4645 6.46447C25.5268 7.40215 25 8.67392 25 10V12.5H17.5C16.1739 12.5 14.9021 13.0268 13.9645 13.9645C13.0268 14.9021 12.5 16.1739 12.5 17.5V70C12.5 71.3261 13.0268 72.5979 13.9645 73.5355C14.9021 74.4732 16.1739 75 17.5 75H62.5C63.8261 75 65.0979 74.4732 66.0355 73.5355C66.9732 72.5979 67.5 71.3261 67.5 70V17.5C67.5 16.1739 66.9732 14.9021 66.0355 13.9645C65.0979 13.0268 63.8261 12.5 62.5 12.5ZM30 10H50V20H30V10ZM62.5 70H17.5V17.5H25V25H55V17.5H62.5V70Z" fill="#732DD9"/>
</svg>
