<svg width="90" height="89" viewBox="0 0 90 89" fill="none" xmlns="http://www.w3.org/2000/svg">
<path d="M25.0002 18.2141C7.21 18.684 12.0002 36.7141 12.0002 55.7141C18.9999 73.1262 33.4764 86.1187 58 74.7127C83.5 62.8524 81.6894 35.4617 73.631 23.5566C58 6.71334 45.7485 17.6661 25.0002 18.2141Z" fill="#FFBE00" fill-opacity="0.2"/>
<g clip-path="url(#clip0)">
<path d="M37.8334 26.6665C36.4667 26.6665 35.3334 27.7998 35.3334 29.1665V44.7998C35.3334 45.9665 35.9334 47.0332 36.9 47.6332L49.0334 55.0998C49.5726 55.4269 50.2198 55.5264 50.8324 55.3764C51.445 55.2264 51.9729 54.8391 52.3 54.2998C52.6271 53.7606 52.7266 53.1134 52.5766 52.5008C52.4266 51.8882 52.0393 51.3603 51.5 51.0332L40.3334 44.3332V29.1665C40.3334 27.7998 39.2 26.6665 37.8334 26.6665Z" fill="#732DD9"/>
<path d="M61.7334 40.0002C62.2358 43.3133 62.0142 46.696 61.0839 49.9153C60.1536 53.1345 58.5367 56.114 56.3444 58.6484C54.1521 61.1828 51.4366 63.212 48.3849 64.5962C45.3331 65.9805 42.0176 66.6869 38.6667 66.6668C25.6667 66.6668 15.3334 56.3335 15.3334 43.3335C15.3334 30.3335 25.6667 20.0002 38.6667 20.0002C41 20.0002 43.2334 20.3335 45.3334 20.9668V20.403V20.0002V14.1002C43.2 13.6002 40.9667 13.3335 38.6667 13.3335C22 13.3335 8.66669 26.6668 8.66669 43.3335C8.66669 60.0002 22 73.3335 38.6667 73.3335C42.8923 73.351 47.0736 72.472 50.9344 70.7544C54.7952 69.0369 58.2478 66.5199 61.0642 63.3696C63.8805 60.2193 65.9966 56.5074 67.2726 52.479C68.5486 48.4507 68.9556 44.1974 68.4667 40.0002H61.7334Z" fill="#732DD9"/>
<path d="M55.61 37.9199C55.4054 37.8335 55.2353 37.6814 55.1267 37.4877C55.018 37.2939 54.977 37.0695 55.01 36.8499L56.83 24.9999H52C51.8469 25.004 51.6949 24.9729 51.5557 24.9089C51.4165 24.845 51.2939 24.7499 51.1972 24.6311C51.1006 24.5122 51.0326 24.3727 50.9984 24.2234C50.9642 24.0741 50.9648 23.9189 51 23.7699L54 10.7699C54.0528 10.5461 54.1811 10.3474 54.3632 10.2072C54.5454 10.0669 54.7702 9.99373 55 9.99987H65C65.1494 9.99936 65.297 10.0323 65.432 10.0964C65.567 10.1604 65.6859 10.2538 65.78 10.3699C65.8755 10.4872 65.9431 10.6247 65.9777 10.7719C66.0124 10.9191 66.0132 11.0723 65.98 11.2199L64.25 18.9999H69C69.1875 18.9995 69.3712 19.0518 69.5303 19.1508C69.6895 19.2498 69.8176 19.3916 69.9 19.5599C69.9717 19.7214 69.9993 19.899 69.9799 20.0747C69.9606 20.2504 69.8951 20.4178 69.79 20.5599L56.79 37.5599C56.7022 37.6901 56.5849 37.7978 56.4476 37.8743C56.3104 37.9507 56.157 37.9937 56 37.9999C55.8662 37.9974 55.734 37.9703 55.61 37.9199Z" fill="#732DD9"/>
</g>
<defs>
<clipPath id="clip0">
<rect width="80" height="80" fill="white" transform="translate(2.00003)"/>
</clipPath>
</defs>
</svg>
