<svg width="122" height="122" fill="none" 
	xmlns="http://www.w3.org/2000/svg">
	<path d="M23 86.5c16.5 15 46.575 23.5 70.5 0 13.388-13.151 16.059-44.616 0-54.5C77.44 22.116 67 16 43 28 14.5 35.5 7.898 72.77 23 86.5z" fill="#FFBE00" fill-opacity=".2"/>
	<path d="M37.224 75.304l3.563 3.513a2 2 0 003.116-.39l6.69-11.082a2 2 0 012.438-.83l8.111 3.156a2 2 0 002.398-.766L74.6 52.061a2 2 0 013.003-.395l5.526 4.927a2 2 0 003.095-.55l13.041-24.424" stroke="#732DD9" stroke-width="5" stroke-linecap="round" stroke-linejoin="round"/>
	<path fill-rule="evenodd" clip-rule="evenodd" d="M24.445 24.721a2 2 0 011.422.567l8.943 8.708a2 2 0 11-2.79 2.866l-4.91-4.78v58.316h73.811l-4.683-4.556a2 2 0 012.79-2.867l8.707 8.472a2 2 0 01.038 2.829l-8.707 8.942a2 2 0 11-2.866-2.79l4.897-5.03H24.61a2.5 2.5 0 01-2.5-2.5V32.017l-4.677 4.806a2 2 0 01-2.867-2.789l8.473-8.707a2 2 0 011.406-.606zm78.63 68.646l.436-.448-.436-.425v.873z" fill="#732DD9"/>
	<g clip-path="url(#clip0)">
		<path d="M65.71 45.99a.637.637 0 00-.766-.498 11.16 11.16 0 01-2.415.288c-3.016 0-5.417-1.85-6.455-4.541h6.042a.638.638 0 00.623-.498l.338-1.508a.638.638 0 00-.622-.777h-7.134a11.468 11.468 0 01.007-2.245h7.79a.638.638 0 00.624-.502l.346-1.581a.638.638 0 00-.623-.774h-7.349c1.097-2.391 3.332-3.988 6.251-3.988.77 0 1.518.12 2.012.22a.638.638 0 00.744-.458l.637-2.358a.637.637 0 00-.496-.793 15.475 15.475 0 00-2.8-.276c-5.164 0-9.332 3.202-10.871 7.653h-1.758a.638.638 0 00-.638.638v1.58c0 .353.286.639.638.639h1.146a15.788 15.788 0 00-.01 2.245h-1.136a.638.638 0 00-.638.637v1.508c0 .352.286.638.638.638h1.6c1.33 4.8 5.482 8.271 11.03 8.271 1.397 0 2.58-.241 3.247-.414a.638.638 0 00.467-.741l-.469-2.365z" fill="#732DD9"/>
	</g>
	<defs>
		<clipPath id="clip0">
			<path fill="#fff" transform="translate(49.197 24)" d="M0 0h17.007v27.211H0z"/>
		</clipPath>
	</defs>
</svg>
