<svg width="80" height="80" fill="none" 
	xmlns="http://www.w3.org/2000/svg">
	<g clip-path="url(#clip0)">
		<path d="M-3 43c0 11 33.5 38 55.501 30.001 17.499-9.501 28.085-39.976 19-56.5-5.499-10-14.501-6-30.001-2C4 26.499-3 20.5-3 43z" fill="#FFBE00" fill-opacity=".2"/>
		<path d="M65 15a26.965 26.965 0 01-9.51 5.89c-3.74.66-14.09-4.14-19.19.76-.85.85-1.9 1.7-3 2.55-2.4-1.05-6.1-2.65-8.8-4.2-2.7-1.55-9.5-5-9.5-5L0 32.5s3.7 5 6 8.3c1.5 2.2 3.35 5.55 4.55 7.8l-1.7 2a4.38 4.38 0 00.75 5 4.165 4.165 0 005.01-.01 3.1 3.1 0 00.385 4.405 4.97 4.97 0 005.03-.01 4.03 4.03 0 00-.015 5.025 5.06 5.06 0 004.46-.57 4.11 4.11 0 00.935 4.56 5.465 5.465 0 005.27-.46l2.58-2.335a13.013 13.013 0 009.21 3.805l.305-.005a6.555 6.555 0 005.47-3.955c.73.28 1.56.47 2.44.47 1.18 0 2.275-.34 3.2-.925 2.925-1.935 2.225-3.435 2.225-3.435a5.35 5.35 0 006.145-1.395 4.98 4.98 0 00.69-6.075.18.18 0 00.105.025 5.594 5.594 0 004.89-2.87 7.82 7.82 0 00-.955-7.4l.015.025c4.1-.8 3.95-2.85 5.95-5.85a23.624 23.624 0 016.935-6.04L65 15zm-.25 35.3c-2.2 2.2-3.9 1.25-7.65-1.6-3.75-2.85-11.2-8.2-11.2-8.2a7.906 7.906 0 002.005 3.905C49.5 46.2 54.25 50.3 56.5 52.4c1.4 1.3 5 3.9 2.9 5.9-2.1 2-3.75 0-7.2-2.8s-11.15-9.7-11.15-9.7a4.686 4.686 0 001.35 3.6c.85 1 5.6 5.6 7.6 7.7 2 2.1 3.75 3.35 2.05 5-1.7 1.65-5.15-.95-7.05-2.9-2.95-2.85-8.8-8.15-8.8-8.15l-.005.265c0 1.42.49 2.72 1.315 3.75 1.44 1.89 4.24 4.34 5.94 6.24 1.7 1.9 2.7 3.5 0 5s-6.7-2.2-8.45-4v-.01c0-.494-.177-.971-.5-1.345a4.48 4.48 0 00-4.53-.94A3.044 3.044 0 0030 55.5a3.77 3.77 0 00-4.56.005 3.05 3.05 0 00-.425-4.75 5 5 0 00-5.87.4 3.3 3.3 0 00-.34-4.555 4.98 4.98 0 00-5.93-.64L9.55 40.345c-2.3-3.65-5-7.45-5-7.45l11.4-13.85s4.05 2.5 7.4 4.4c1.65.95 4.5 2.2 6.65 3.2-3.4 2.55-6.25 5-5.4 6.7a9.17 9.17 0 0010.435.18 12.05 12.05 0 016.715-2.015c1.735 0 3.385.36 4.88 1.015 2.77 1.87 7.87 6.47 12.52 9.37 5.85 4.25 7 7 5.6 8.4v.005z" fill="#732DD9"/>
	</g>
	<defs>
		<clipPath id="clip0">
			<path fill="#fff" d="M0 0h80v80H0z"/>
		</clipPath>
	</defs>
</svg>
