<svg width="91" height="89" viewBox="0 0 91 89" fill="none" xmlns="http://www.w3.org/2000/svg">
<path d="M67.7545 23.5C56.96 9.35112 35.2767 12.3784 19.8718 23.5C9.85178 39.3675 7.79155 58.7099 31.3942 71.9166C55.9367 85.6491 69.6441 73.9747 74.5795 60.4725C79.086 37.9399 80.3439 40.0015 67.7545 23.5Z" fill="#FFBE00" fill-opacity="0.2"/>
<g clip-path="url(#clip0)">
<path fill-rule="evenodd" clip-rule="evenodd" d="M56.0022 21.4451C56.0094 21.9756 55.8055 22.4872 55.4354 22.8674L46.7279 31.8102C45.9573 32.6016 44.6911 32.6185 43.8997 31.8479C43.1083 31.0773 43.0914 29.8111 43.862 29.0197L48.4827 24.2742C40.0676 22.6826 31.0709 25.6582 25.3188 32.7912C18.7591 40.9255 18.3773 52.038 23.5652 60.4541L19.6185 65.3482C11.9421 54.6603 11.9867 39.7656 20.6482 29.0248C27.3933 20.6605 37.7075 16.8694 47.6425 18.0746L43.9002 14.4335C43.1086 13.6632 43.0912 12.397 43.8615 11.6053C44.6318 10.8136 45.898 10.7963 46.6896 11.5665L55.3971 20.0387C55.4293 20.07 55.4604 20.1024 55.4902 20.1356C55.6368 20.1964 55.7829 20.2584 55.9287 20.3217L55.7642 20.5256C55.9149 20.806 55.9979 21.121 56.0022 21.4451ZM64.4368 35.2595L68.3835 30.3654C76.06 41.0534 76.0154 55.9481 67.3538 66.6889C59.8943 75.9391 48.0697 79.596 37.2202 77.0875L42.1032 81.8385C42.8949 82.6088 42.9122 83.875 42.142 84.6667C41.3717 85.4584 40.1055 85.4757 39.3138 84.7054L30.6063 76.2333C30.226 75.8633 30.0084 75.3574 30.0012 74.8269C29.994 74.2963 30.1979 73.7847 30.5681 73.4046L39.2756 64.4618C40.0461 63.6704 41.3123 63.6535 42.1037 64.4241C42.8951 65.1946 42.912 66.4608 42.1414 67.2522L38.3171 71.1799C47.0671 73.3061 56.6562 70.3964 62.6833 62.9225C69.2429 54.7881 69.6248 43.6757 64.4368 35.2595ZM44.411 38.4369L53.411 47.4369C53.771 47.7969 54.001 48.3069 54.001 48.8569C54.001 49.4069 53.781 49.9069 53.411 50.2669L46.411 57.2669C46.051 57.6369 45.551 57.8569 45.001 57.8569C44.451 57.8569 43.951 57.6369 43.591 57.2769L34.591 48.2769C34.221 47.9069 34.001 47.4069 34.001 46.8569V39.8569C34.001 38.7569 34.901 37.8569 36.001 37.8569H43.001C43.551 37.8569 44.051 38.0769 44.411 38.4369ZM36.001 41.3569C36.001 42.1869 36.671 42.8569 37.501 42.8569C38.331 42.8569 39.001 42.1869 39.001 41.3569C39.001 40.5269 38.331 39.8569 37.501 39.8569C36.671 39.8569 36.001 40.5269 36.001 41.3569Z" fill="#732DD9"/>
</g>
<defs>
<clipPath id="clip0">
<rect width="80" height="80" fill="white" transform="translate(0 5)"/>
</clipPath>
</defs>
</svg>
